<svg width="150" height="60" viewBox="0 0 150 60" fill="none" xmlns="http://www.w3.org/2000/svg">
<path d="M19.4062 32.4062V33.5C19.4062 35.7604 18.7031 37.6094 17.2969 39.0469C15.8177 40.5573 13.8906 41.3125 11.5156 41.3125C9.14062 41.3125 7.21354 40.5573 5.73438 39.0469C4.32812 37.6094 3.625 35.7604 3.625 33.5V24.9062C3.625 22.6458 4.32812 20.7969 5.73438 19.3594C7.21354 17.849 9.14062 17.0938 11.5156 17.0938C13.974 17.0938 15.901 17.849 17.2969 19.3594C18.7031 20.8698 19.4062 22.6146 19.4062 24.5938L16.4375 26H16.2812V24.9062C16.2812 23.5104 15.9062 22.3802 15.1562 21.5156C14.2292 20.4427 13.0156 19.9062 11.5156 19.9062C10.0156 19.9062 8.80208 20.4427 7.875 21.5156C7.125 22.3802 6.75 23.5104 6.75 24.9062V33.5C6.75 34.8958 7.125 36.026 7.875 36.8906C8.80208 37.9635 10.0156 38.5 11.5156 38.5C13.0156 38.5 14.2292 37.9635 15.1562 36.8906C15.9062 36.026 16.2812 35 16.2812 33.8125L19.25 32.4062H19.4062ZM25.6562 41.625V18.1875L28.625 16.7812H28.7812V24.8281C29.5625 23.9427 30.6823 23.5 32.1406 23.5C33.9427 23.5 35.4583 24.0885 36.6875 25.2656C37.9792 26.5156 38.625 28.0104 38.625 29.75V40.2188L35.6562 41.625H35.5V29.75C35.5 28.5521 35.1719 27.6771 34.5156 27.125C33.8698 26.5625 33.0781 26.2812 32.1406 26.2812C31.2031 26.2812 30.4062 26.5625 29.75 27.125C29.1042 27.6771 28.7812 28.5521 28.7812 29.75V40.2188L25.8125 41.625H25.6562ZM44.0938 41.625V18.1875L47.0625 16.7812H47.2188V24.8281C48 23.9427 49.1198 23.5 50.5781 23.5C52.3802 23.5 53.8958 24.0885 55.125 25.2656C56.4167 26.5156 57.0625 28.0104 57.0625 29.75V40.2188L54.0938 41.625H53.9375V29.75C53.9375 28.5521 53.6094 27.6771 52.9531 27.125C52.3073 26.5625 51.5156 26.2812 50.5781 26.2812C49.6406 26.2812 48.8438 26.5625 48.1875 27.125C47.5417 27.6771 47.2188 28.5521 47.2188 29.75V40.2188L44.25 41.625H44.0938ZM73.625 40.2188L70.6562 41.625H70.5V39.9844C69.6667 40.8698 68.5469 41.3125 67.1406 41.3125C65.1927 41.3125 63.6771 40.724 62.5938 39.5469C61.5104 38.3698 60.9688 36.9792 60.9688 35.375C60.9688 33.7083 61.5573 32.2917 62.7344 31.125C63.8698 30 65.3385 29.4375 67.1406 29.4375C68.4219 29.4375 69.5417 29.8802 70.5 30.7656C70.5 28.9219 70.1771 27.7083 69.5312 27.125C68.9062 26.5625 68.1094 26.2812 67.1406 26.2812H63.3438V26.125L64.5938 23.5H67.1406C68.9635 23.5 70.4792 24.0885 71.6875 25.2656C72.9792 26.526 73.625 28.0208 73.625 29.75V40.2188ZM64.0312 35.375C64.0312 36.3021 64.3125 37.0677 64.875 37.6719C65.4167 38.2552 66.1771 38.5469 67.1562 38.5469C68.1771 38.5469 68.9688 38.25 69.5312 37.6562C70.1562 36.9896 70.4688 36.2396 70.4688 35.4062C70.4688 34.4688 70.1458 33.7083 69.5 33.125C68.8542 32.5417 68.0781 32.25 67.1719 32.25C66.224 32.25 65.4635 32.5573 64.8906 33.1719C64.3177 33.7865 64.0312 34.5208 64.0312 35.375ZM78.3125 41.625V29.75C78.3125 28.0312 78.9583 26.5365 80.25 25.2656C81.4583 24.0885 82.974 23.5 84.7969 23.5C86.599 23.5 88.1146 24.0885 89.3438 25.2656C90.6354 26.5156 91.2812 28.0104 91.2812 29.75V40.2188L88.3125 41.625H88.1562V29.75C88.1562 28.5521 87.8281 27.6771 87.1719 27.125C86.526 26.5625 85.7344 26.2812 84.7969 26.2812C83.8594 26.2812 83.0625 26.5625 82.4062 27.125C81.7604 27.6771 81.4375 28.5521 81.4375 29.75V40.2188L78.4688 41.625H78.3125ZM99.0938 35.0625C99.0938 36.2604 99.4167 37.1406 100.062 37.7031C100.719 38.2552 101.516 38.5312 102.453 38.5312C103.391 38.5312 104.182 38.2552 104.828 37.7031C105.484 37.1406 105.812 36.2604 105.812 35.0625V29.75C105.812 28.5521 105.484 27.6771 104.828 27.125C104.182 26.5625 103.391 26.2812 102.453 26.2812C101.516 26.2812 100.719 26.5625 100.062 27.125C99.4167 27.6771 99.0938 28.5521 99.0938 29.75V35.0625ZM95.9688 35.0625V29.75C95.9688 28.0312 96.6146 26.5365 97.9062 25.2656C99.1146 24.0885 100.63 23.5 102.453 23.5C104.276 23.5 105.792 24.0885 107 25.2656C108.292 26.526 108.938 28.0208 108.938 29.75V41.4688C108.938 43.1875 108.292 44.6823 107 45.9531C105.792 47.1302 104.276 47.7188 102.453 47.7188H97.6406V47.5625L98.8906 44.9375H102.453C103.391 44.9375 104.182 44.6562 104.828 44.0938C105.484 43.5417 105.812 42.6667 105.812 41.4688V39.9844C105.021 40.8698 103.901 41.3125 102.453 41.3125C100.651 41.3125 99.1354 40.724 97.9062 39.5469C96.6146 38.2969 95.9688 36.8021 95.9688 35.0625ZM114.094 41.625V29.75C114.094 28.0312 114.74 26.5365 116.031 25.2656C117.24 24.0885 118.755 23.5 120.578 23.5C122.234 23.5 123.667 24.1042 124.875 25.3125C125.104 25.5417 125.312 25.8125 125.5 26.125C125.688 25.8229 125.896 25.5573 126.125 25.3281C127.427 24.1094 128.859 23.5 130.422 23.5C132.224 23.5 133.74 24.0885 134.969 25.2656C136.26 26.5156 136.906 28.0104 136.906 29.75V40.2188L133.938 41.625H133.781V29.75C133.781 28.5521 133.453 27.6771 132.797 27.125C132.151 26.5625 131.359 26.2812 130.422 26.2812C129.484 26.2812 128.688 26.5625 128.031 27.125C127.385 27.6771 127.062 28.5521 127.062 29.75V40.2188L124.094 41.625H123.938V29.75C123.938 28.5521 123.609 27.6771 122.953 27.125C122.307 26.5625 121.516 26.2812 120.578 26.2812C119.641 26.2812 118.844 26.5625 118.188 27.125C117.542 27.6771 117.219 28.5521 117.219 29.75V40.2188L114.25 41.625H114.094ZM142.609 20.3594C142.245 19.9844 142.062 19.5365 142.062 19.0156C142.062 18.4844 142.245 18.0312 142.609 17.6562C142.974 17.2812 143.417 17.0938 143.938 17.0938C144.458 17.0938 144.901 17.2812 145.266 17.6562C145.63 18.0312 145.812 18.4844 145.812 19.0156C145.812 19.5365 145.63 19.9844 145.266 20.3594C144.901 20.7344 144.458 20.9219 143.938 20.9219C143.417 20.9219 142.974 20.7344 142.609 20.3594ZM142.375 41.625V24.5938L145.344 23.1875H145.5V40.2188L142.531 41.625H142.375Z" fill="#C53231"/>
</svg>
